<svg viewBox="0 0 256 256" xmlns="http://www.w3.org/2000/svg" xml:space="preserve" style="fill-rule:evenodd;clip-rule:evenodd;stroke-linejoin:round;stroke-miterlimit:2">
  <circle cx="128.098" cy="129.156" r="124.616" style="fill:url(#a)" transform="matrix(1.02716 0 0 1.01822 -3.576 -3.509)"/>
  <path d="M11 15.362c0-.2-.162-.362-.362-.362h-3.89a.462.462 0 0 1-.413-.669l6.398-12.796a.14.14 0 0 1 .267.063v6.949a.453.453 0 0 0 .453.453h3.875a.415.415 0 0 1 .371.601l-6.411 12.824a.153.153 0 0 1-.171.08.153.153 0 0 1-.117-.148v-6.995Z" style="fill:#fff;fill-rule:nonzero" transform="translate(28.942 28.942) scale(8.25482)"/>
  <defs>
    <linearGradient id="a" x1="0" y1="0" x2="1" y2="0" gradientUnits="userSpaceOnUse" gradientTransform="matrix(0 249.232 -247.063 0 128.098 4.54)">
      <stop offset="0" style="stop-color:#00e676;stop-opacity:1"/>
      <stop offset="1" style="stop-color:#00b8d4;stop-opacity:1"/>
    </linearGradient>
  </defs>
</svg>
